<svg width="810" height="810" viewBox="0 0 810 810" fill="none" xmlns="http://www.w3.org/2000/svg">
<rect width="810" height="810" fill="none"/>
<path d="M0 0H810V810H0V0Z" fill="none"/>
<path d="M141.325 14.006C173.269 12.1211 219.865 13.5282 252.742 13.5263L462.148 13.4793L601.402 13.4549C652.443 13.4699 696.645 7.22078 740.272 40.5844C769.998 63.0036 789.714 96.5403 795.057 133.775C797.927 155.034 796.613 211.14 796.624 235.049L796.65 430.289L796.758 589.812C796.806 611.118 797.823 660.872 795.294 679.179C791.895 702.147 782.922 723.893 769.182 742.452C744.311 775.43 710.568 792.14 670.738 797.392C626.832 798.468 580.724 797.787 536.716 797.791L311.408 797.804L199.839 797.746C178.964 797.74 147.275 798.703 127.691 795.611C103.421 791.623 80.6872 780.959 61.9517 764.775C33.9946 741.006 15.4072 705.43 13.359 668.652C11.3755 633.05 12.2359 594.709 12.2489 558.819L12.2063 363.507L12.1915 214.65C12.1934 193.717 11.1313 149.859 13.9899 131.132C18.0197 105.935 28.7344 82.3321 44.9795 62.8663C69.9095 32.9038 103.225 17.1381 141.325 14.006Z" fill="black"/>
<path d="M145.322 56.7902C152.093 56.0638 166.641 56.3972 173.757 56.401L226.376 56.455L397.203 56.3916L577.361 56.3264C608.241 56.3246 642.593 55.3691 673.047 57.7662C707.94 60.5136 746.638 96.9216 751.854 131.905C756.117 160.482 754.313 198.444 754.282 228.735L754.224 397.618L754.31 573.37C754.319 592.75 755.489 645.79 753.362 663.141C751.242 680.268 744.429 696.463 733.686 709.919C715.772 732.37 692.398 743.685 664.366 746.733C633.245 748.567 587.632 747.232 555.631 747.249L347.602 747.288L211.944 747.362C193.032 747.371 154.832 748.353 137.303 746.003C119.602 743.585 102.954 736.144 89.3056 724.551C70.0434 708.397 56.3657 682.792 55.288 657.799C53.9104 625.823 54.6881 591.743 54.664 559.559L54.6103 361.674L54.5085 215.693C54.4696 191.899 52.9735 163.785 55.4399 140.419C60.5262 92.2242 99.6968 60.5955 145.322 56.7902Z" fill="white"/>
<path d="M579.981 117.779C584.429 117.362 590.039 117.639 594.591 117.716C608.631 159.469 613.643 159.143 573.027 165.605C553.329 168.739 543.499 195.969 543.099 215.384C550.393 225.174 573.473 242.921 583.659 255.119C602.793 278.038 616.188 303.449 631.345 329.095C628.991 336.339 626.594 343.57 624.15 350.783L597.74 426.28C595.663 432.154 585.47 461.624 583.22 464.901C574.462 477.659 558.449 495.702 548.315 507.932C528.124 532.403 508.326 557.201 488.935 582.318C483.187 589.759 460.329 622.18 453.784 624.986C418.827 639.978 380.031 643.819 348.893 667.422C339.903 674.235 324.131 683.328 313.788 689.119C297.501 687.877 281.207 686.726 264.906 685.666C228.744 683.291 184.556 680.551 148.703 676.785C168.828 648.364 191.993 615.117 214.876 588.636C217.266 585.868 239.415 569.787 243.212 567.63C266.148 554.594 269.411 535.93 281.607 514.341C290.31 498.429 305.198 470.788 312.201 454.572C315.506 446.923 320.569 408.518 322.263 398.242L346.517 244.977C398.815 220.259 437.645 200.636 496.621 201.184C524.048 163.82 526.03 131.141 579.981 117.779Z" fill="black"/>
<path d="M396.88 279.18C412.26 267.852 453.762 248.615 471.674 240.743C477.682 249.706 484.43 261.545 490.207 270.971C503.02 266.654 515.916 262.586 528.886 258.775C535.417 271.77 541.52 285.874 547.525 299.19C533.858 296.774 515.559 295.28 501.466 293.673C483.833 291.577 466.23 289.223 448.664 286.612L447.446 289.72C481.763 297.446 516.029 305.403 550.241 313.591C538.924 346.19 531.895 381.443 520.077 413.672C516.618 423.104 498.283 446.655 491.712 455.813C476.327 477.303 461.053 498.874 445.894 520.525C425.712 511.989 403.657 499.792 384.143 492.383C401.856 505.101 419.449 517.984 436.925 531.03C424.032 544.807 410.508 558.103 396.906 571.167C381.044 586.401 359.989 594.85 341.12 605.612C299.492 629.358 251.721 636.687 206.882 653.644C230.444 650.396 253.365 643.646 276.7 639.181C286.929 637.225 297.172 635.331 307.4 633.374C306.45 644.303 305.413 655.227 304.291 666.142C296.52 664.909 278.676 664.278 270.007 663.62L195.915 657.865C221.275 641.759 255.957 623.031 282.737 609.074C308.037 566.607 336.97 526.334 362.578 484.355C365.961 478.81 372.384 419.403 374.045 408.483C380.834 365.239 388.446 322.129 396.88 279.18Z" fill="white"/>
<path d="M447.446 289.72C439.158 288.089 433.879 287.161 425.856 284.244C432.914 284.412 441.671 285.609 448.664 286.612L447.446 289.72Z" fill="black"/>
<path d="M395.423 377.798C409.108 380.307 410.255 398.877 427.397 403.962C440.117 407.736 469.297 391.155 473.248 401.122C472.661 404.741 470.724 406.212 468.212 408.976C466.669 410.245 465.099 411.474 463.501 412.668C454.184 419.764 442.395 422.733 430.852 420.891C410.212 417.68 391.42 400.25 395.423 377.798Z" fill="black"/>
<path d="M420.385 301.602C446.677 305.86 431.479 340.468 414.828 350.951C388.298 348.839 402.922 310.838 420.385 301.602Z" fill="black"/>
<path d="M489.962 324.079C519.832 324.795 501.603 360.977 486.861 372.419C458.033 376.04 475.148 334.888 489.962 324.079Z" fill="black"/>
<path d="M565.78 317.577C576.871 323.016 593.759 333.94 604.482 340.649C593.456 374.239 579.9 410.528 567.929 443.952L567.211 444.453C562.9 442.849 534.797 420.077 529.507 415.873C541.59 383.392 552.809 349.658 565.78 317.577Z" fill="white"/>
<path d="M526.405 422.633C530.083 424.553 555.946 454.284 560.11 458.91C542.201 481.433 523.437 503.261 505.371 525.707L496.282 525.8L458.789 526.103C480.323 490.96 502.872 456.456 526.405 422.633Z" fill="white"/>
<path d="M329.58 470.47C336.939 472.984 344.558 476.005 351.862 478.769L279.141 605.087C259.066 614.651 234.94 627.013 215.674 637.876L197 647.965C206.766 635.899 218.427 617.87 228.55 607.001C239.365 595.388 263.456 580.69 277.499 571.759C294.415 537.767 311.777 504 329.58 470.47Z" fill="white"/>
<path d="M365.862 264.583C372.341 267.505 378.753 270.578 385.091 273.801C380.575 301.868 378.418 332.565 374.145 360.996C368.655 397.516 361.976 433.384 355.105 469.635C352.042 468.106 339.049 457.663 335.583 454.969C346.539 393.599 356.679 326.268 365.862 264.583Z" fill="white"/>
<path d="M450.74 537.314C465.11 538.525 478.443 539.534 492.834 541.179C478.988 559.241 459.461 586.015 444.289 603.809C443.509 604.723 441.036 603.628 439.389 603.192C424.262 597.869 409.168 592.447 394.11 586.928C410.023 571.295 433.561 551.708 450.74 537.314Z" fill="white"/>
<path d="M574.138 133.7L575.695 134.431C575.965 141.572 575.854 143.274 579.544 149.404C574.786 150.3 569.611 150.94 565.076 152.604C534.599 163.79 527.85 195.643 528.198 224.353C542.364 237.478 555.74 247.177 568.535 262.206C555.651 256.028 544.284 248.974 530.707 242.833C522.993 244.485 512.178 248.039 504.384 250.347L495.861 252.839C490.556 243.537 486.346 236.672 480.336 227.819C469.415 225.802 455.289 224.297 444.063 222.777C466.738 216.243 479.486 216.764 502.692 216.794C531.06 185.423 527.64 154.926 574.138 133.7Z" fill="white"/>
<path d="M388.576 591.108C396.567 596.584 415.68 606.2 425.53 611.878C404.531 619.004 381.157 625.223 361.054 634.003C356.027 636.197 343.256 644.853 338.209 648.161C331.078 652.478 324.085 657.025 317.243 661.791C315.575 651.942 314.242 642.038 313.244 632.096C322.761 627.326 334.474 620.123 344.03 614.809C358.793 606.748 373.643 598.847 388.576 591.108Z" fill="white"/>
<path d="M424.769 234.628C436.212 235.318 453.6 237.959 465.604 239.298C450.108 245.756 427.18 253.023 410.719 258.766L389.759 267.177L376.916 256.171C392.068 249.835 409.484 241.433 424.769 234.628Z" fill="white"/>
<path d="M538.146 264.199C549.295 268.146 565.793 277.207 577.306 282.545C585.273 295.511 593.15 308.532 600.938 321.61C563.006 309.11 558.77 295.947 538.146 264.199Z" fill="white"/>
<path d="M584.355 130.383C586.706 134.643 590.402 145.848 587.345 150.045C580.181 143.19 579.315 138.873 584.355 130.383Z" fill="white"/>
</svg>
