<svg width="483" height="573" viewBox="0 0 483 573" fill="none" xmlns="http://www.w3.org/2000/svg">
<path d="M431.46 0.680769C435.903 0.263286 441.508 0.540993 446.055 0.617407C460.082 42.3973 465.09 42.0712 424.512 48.5366C404.833 51.6733 395.012 78.9196 394.613 98.3474C401.899 108.143 424.957 125.901 435.133 138.107C454.25 161.041 467.632 186.468 482.774 212.13C480.423 219.378 478.028 226.613 475.586 233.832L449.202 309.375C447.126 315.254 436.943 344.742 434.695 348.021C425.945 360.787 409.948 378.842 399.824 391.079C379.651 415.565 359.873 440.379 340.499 465.512C334.757 472.958 311.921 505.398 305.382 508.207C270.458 523.208 231.699 527.051 200.59 550.669C191.609 557.487 175.852 566.586 165.518 572.38C149.247 571.137 132.968 569.985 116.682 568.925C80.5549 566.548 36.4084 563.807 0.589783 560.038C20.6958 531.599 43.8392 498.331 66.6996 471.834C69.0878 469.064 91.2156 452.973 95.0096 450.814C117.924 437.77 121.183 419.095 133.368 397.492C142.062 381.57 156.937 353.912 163.933 337.686C167.235 330.031 172.293 291.603 173.985 281.32L198.216 127.959C250.465 103.225 289.258 83.5901 348.178 84.1381C375.58 46.7511 377.559 14.0514 431.46 0.680769Z" fill="white"/>
<path d="M248.532 162.183C263.897 150.848 305.359 131.599 323.255 123.723C329.257 132.691 335.998 144.537 341.77 153.969C354.571 149.649 367.455 145.579 380.413 141.766C386.938 154.769 393.035 168.881 399.034 182.205C385.38 179.788 367.098 178.293 353.019 176.685C335.403 174.588 317.816 172.232 300.267 169.619L299.049 172.73C333.335 180.461 367.568 188.423 401.747 196.616C390.441 229.236 383.419 264.511 371.612 296.76C368.156 306.198 349.839 329.763 343.274 338.927C327.903 360.431 312.644 382.015 297.499 403.68C277.336 395.138 255.302 382.934 235.807 375.52C253.503 388.246 271.08 401.138 288.539 414.191C275.658 427.978 262.147 441.281 248.558 454.354C232.71 469.597 211.676 478.051 192.824 488.82C151.236 512.581 103.51 519.915 58.7138 536.883C82.2531 533.632 105.152 526.878 128.466 522.411C138.685 520.454 148.918 518.558 159.136 516.6C158.187 527.536 157.151 538.467 156.03 549.389C148.267 548.155 130.44 547.523 121.779 546.865L47.7571 541.106C73.0926 524.99 107.742 506.25 134.496 492.285C159.773 449.791 188.678 409.493 214.262 367.487C217.641 361.939 224.059 302.494 225.718 291.567C232.501 248.296 240.106 205.16 248.532 162.183Z" fill="black"/>
<path d="M299.05 172.73C290.77 171.097 285.496 170.169 277.48 167.251C284.532 167.418 293.28 168.617 300.267 169.62L299.05 172.73Z" fill="white"/>
<path d="M247.076 260.864C260.749 263.374 261.894 281.956 279.019 287.044C291.728 290.82 320.88 274.229 324.827 284.202C324.241 287.823 322.306 289.295 319.796 292.061C318.255 293.33 316.686 294.56 315.09 295.755C305.781 302.856 294.003 305.827 282.471 303.984C261.851 300.77 243.077 283.329 247.076 260.864Z" fill="white"/>
<path d="M272.014 184.619C298.282 188.88 283.098 223.51 266.463 233.999C239.958 231.886 254.568 193.861 272.014 184.619Z" fill="white"/>
<path d="M341.526 207.111C371.368 207.827 353.156 244.032 338.427 255.481C309.627 259.104 326.725 217.926 341.526 207.111Z" fill="white"/>
<path d="M417.271 200.604C428.352 206.047 445.224 216.978 455.937 223.691C444.921 257.302 431.378 293.614 419.419 327.059L418.701 327.56C414.395 325.955 386.318 303.169 381.033 298.963C393.105 266.461 404.313 232.706 417.271 200.604Z" fill="black"/>
<path d="M377.934 305.726C381.608 307.648 407.447 337.397 411.607 342.027C393.715 364.563 374.969 386.405 356.92 408.865L347.839 408.958L310.382 409.262C331.895 374.096 354.423 339.57 377.934 305.726Z" fill="black"/>
<path d="M181.296 353.593C188.647 356.109 196.259 359.132 203.557 361.898L130.904 488.295C110.848 497.865 86.7445 510.235 67.4969 521.104L48.8412 531.2C58.5973 519.127 70.2476 501.086 80.3607 490.211C91.1657 478.59 115.234 463.883 129.263 454.946C146.163 420.933 163.509 387.145 181.296 353.593Z" fill="black"/>
<path d="M217.543 147.577C224.016 150.501 230.422 153.576 236.754 156.801C232.242 184.886 230.087 215.602 225.818 244.051C220.333 280.593 213.661 316.484 206.796 352.758C203.736 351.228 190.756 340.778 187.293 338.083C198.238 276.674 208.368 209.301 217.543 147.577Z" fill="black"/>
<path d="M302.34 420.48C316.697 421.691 330.018 422.701 344.395 424.347C330.562 442.42 311.053 469.212 295.896 487.016C295.117 487.931 292.645 486.835 291.001 486.399C275.888 481.073 260.808 475.647 245.765 470.125C261.662 454.482 285.177 434.883 302.34 420.48Z" fill="black"/>
<path d="M425.622 16.6122L427.177 17.3428C427.447 24.4885 427.336 26.192 431.023 32.3256C426.269 33.2221 421.099 33.8632 416.568 35.5275C386.12 46.7213 379.377 78.5934 379.725 107.321C393.878 120.455 407.242 130.16 420.024 145.199C407.153 139.017 395.797 131.958 382.232 125.814C374.525 127.467 363.72 131.023 355.934 133.332L347.419 135.826C342.12 126.518 337.913 119.648 331.908 110.79C320.998 108.771 306.886 107.266 295.67 105.745C318.323 99.2066 331.059 99.7285 354.243 99.7583C382.585 68.367 379.168 37.8517 425.622 16.6122Z" fill="black"/>
<path d="M240.235 474.307C248.219 479.787 267.314 489.409 277.155 495.09C256.176 502.221 232.823 508.444 212.739 517.229C207.717 519.425 194.959 528.086 189.916 531.396C182.792 535.716 175.805 540.266 168.97 545.035C167.304 535.179 165.972 525.27 164.975 515.321C174.483 510.548 186.185 503.341 195.732 498.023C210.481 489.957 225.316 482.051 240.235 474.307Z" fill="black"/>
<path d="M276.394 117.604C287.827 118.293 305.198 120.936 317.191 122.276C301.71 128.738 278.803 136.01 262.358 141.756L241.418 150.173L228.587 139.16C243.724 132.82 261.124 124.412 276.394 117.604Z" fill="black"/>
<path d="M389.664 147.193C400.802 151.142 417.284 160.209 428.787 165.551C436.747 178.525 444.616 191.554 452.396 204.64C414.5 192.132 410.268 178.961 389.664 147.193Z" fill="black"/>
<path d="M435.829 13.2928C438.178 17.5553 441.871 28.7676 438.817 32.9667C431.66 26.1081 430.794 21.7879 435.829 13.2928Z" fill="black"/>
</svg>
