<svg width="701" height="692" viewBox="0 0 701 692" fill="none" xmlns="http://www.w3.org/2000/svg">
<path d="M91.3221 0.790216C98.0934 0.0638063 112.641 0.397239 119.757 0.400964L172.376 0.454964L343.203 0.391642L523.361 0.326445C554.241 0.324582 588.593 -0.630907 619.047 1.76625C653.94 4.51357 692.638 40.9216 697.854 75.9047C702.117 104.482 700.313 142.444 700.282 172.735L700.224 341.618L700.31 517.37C700.319 536.75 701.489 589.79 699.362 607.141C697.242 624.268 690.429 640.463 679.686 653.919C661.772 676.37 638.398 687.685 610.366 690.733C579.245 692.567 533.632 691.232 501.631 691.249L293.602 691.288L157.944 691.362C139.032 691.371 100.832 692.353 83.3028 690.003C65.6015 687.585 48.9538 680.144 35.3056 668.551C16.0434 652.397 2.36565 626.792 1.28802 601.799C-0.0895681 569.823 0.688093 535.743 0.664023 503.559L0.610342 305.674L0.508517 159.693C0.469633 135.899 -1.02648 107.785 1.43985 84.4187C6.5262 36.2242 45.6968 4.59549 91.3221 0.790216Z" fill="white"/>
<path d="M525.981 61.779C530.429 61.3617 536.039 61.6393 540.591 61.7156C554.631 103.469 559.643 103.143 519.027 109.605C499.329 112.739 489.499 139.969 489.099 159.384C496.393 169.174 519.473 186.921 529.659 199.119C548.793 222.038 562.188 247.449 577.345 273.095C574.991 280.339 572.594 287.57 570.15 294.783L543.74 370.28C541.663 376.154 531.47 405.624 529.22 408.901C520.462 421.659 504.449 439.702 494.315 451.932C474.124 476.403 454.326 501.201 434.935 526.318C429.187 533.759 406.329 566.18 399.784 568.986C364.827 583.978 326.031 587.819 294.893 611.422C285.903 618.235 270.131 627.328 259.788 633.119C243.501 631.877 227.207 630.726 210.906 629.666C174.744 627.291 130.556 624.551 94.7031 620.785C114.828 592.364 137.993 559.117 160.876 532.636C163.266 529.868 185.415 513.787 189.212 511.63C212.148 498.594 215.411 479.93 227.607 458.341C236.31 442.429 251.198 414.788 258.201 398.572C261.506 390.923 266.569 352.518 268.263 342.242L292.517 188.977C344.815 164.259 383.645 144.636 442.621 145.184C470.048 107.82 472.03 75.1412 525.981 61.779Z" fill="black"/>
<path d="M342.88 223.18C358.26 211.852 399.762 192.615 417.674 184.743C423.682 193.706 430.43 205.545 436.207 214.971C449.02 210.654 461.916 206.586 474.886 202.775C481.417 215.77 487.52 229.874 493.525 243.19C479.858 240.774 461.559 239.28 447.466 237.673C429.833 235.577 412.23 233.223 394.664 230.612L393.446 233.72C427.763 241.446 462.029 249.403 496.241 257.591C484.924 290.19 477.895 325.443 466.077 357.672C462.618 367.104 444.283 390.655 437.712 399.813C422.327 421.303 407.053 442.874 391.894 464.525C371.712 455.989 349.657 443.792 330.143 436.383C347.856 449.101 365.449 461.984 382.925 475.03C370.032 488.807 356.508 502.103 342.906 515.167C327.044 530.401 305.989 538.85 287.12 549.612C245.492 573.358 197.721 580.687 152.882 597.644C176.444 594.396 199.365 587.646 222.7 583.181C232.929 581.225 243.172 579.331 253.4 577.374C252.45 588.303 251.413 599.227 250.291 610.142C242.52 608.909 224.676 608.278 216.007 607.62L141.915 601.865C167.275 585.759 201.957 567.031 228.737 553.074C254.037 510.607 282.97 470.334 308.578 428.355C311.961 422.81 318.384 363.403 320.045 352.483C326.834 309.239 334.446 266.129 342.88 223.18Z" fill="white"/>
<path d="M393.446 233.72C385.158 232.089 379.879 231.161 371.856 228.244C378.914 228.412 387.671 229.609 394.664 230.612L393.446 233.72Z" fill="black"/>
<path d="M341.423 321.798C355.108 324.307 356.255 342.877 373.397 347.962C386.117 351.736 415.297 335.155 419.248 345.122C418.661 348.741 416.724 350.212 414.212 352.976C412.669 354.245 411.099 355.474 409.501 356.668C400.184 363.764 388.395 366.733 376.852 364.891C356.212 361.68 337.42 344.25 341.423 321.798Z" fill="black"/>
<path d="M366.385 245.602C392.677 249.86 377.479 284.468 360.828 294.951C334.298 292.839 348.922 254.838 366.385 245.602Z" fill="black"/>
<path d="M435.962 268.079C465.832 268.795 447.603 304.977 432.861 316.419C404.033 320.04 421.148 278.888 435.962 268.079Z" fill="black"/>
<path d="M511.78 261.577C522.871 267.016 539.759 277.94 550.482 284.649C539.456 318.239 525.9 354.528 513.929 387.952L513.211 388.453C508.9 386.849 480.797 364.077 475.507 359.873C487.59 327.392 498.809 293.658 511.78 261.577Z" fill="white"/>
<path d="M472.405 366.633C476.083 368.553 501.946 398.284 506.11 402.91C488.201 425.433 469.437 447.261 451.371 469.707L442.282 469.8L404.789 470.103C426.323 434.96 448.872 400.456 472.405 366.633Z" fill="white"/>
<path d="M275.58 414.47C282.939 416.984 290.558 420.005 297.862 422.769L225.141 549.087C205.066 558.651 180.94 571.013 161.674 581.876L143 591.965C152.766 579.899 164.427 561.87 174.55 551.001C185.365 539.388 209.456 524.69 223.499 515.759C240.415 481.767 257.777 448 275.58 414.47Z" fill="white"/>
<path d="M311.862 208.583C318.341 211.505 324.753 214.578 331.091 217.801C326.575 245.868 324.418 276.565 320.145 304.996C314.655 341.516 307.976 377.384 301.105 413.635C298.042 412.106 285.049 401.663 281.583 398.969C292.539 337.599 302.679 270.268 311.862 208.583Z" fill="white"/>
<path d="M396.74 481.314C411.11 482.525 424.443 483.534 438.834 485.179C424.988 503.241 405.461 530.015 390.289 547.809C389.509 548.723 387.036 547.628 385.389 547.192C370.262 541.869 355.168 536.447 340.11 530.928C356.023 515.295 379.561 495.708 396.74 481.314Z" fill="white"/>
<path d="M520.138 77.7004L521.695 78.4305C521.965 85.5717 521.854 87.2741 525.544 93.4039C520.786 94.2998 515.611 94.9405 511.076 96.6038C480.599 107.79 473.85 139.643 474.198 168.353C488.364 181.478 501.74 191.177 514.535 206.206C501.651 200.028 490.284 192.974 476.707 186.833C468.993 188.485 458.178 192.039 450.384 194.347L441.861 196.839C436.556 187.537 432.346 180.672 426.336 171.819C415.415 169.802 401.289 168.297 390.063 166.777C412.738 160.243 425.486 160.764 448.692 160.794C477.06 129.423 473.64 98.9265 520.138 77.7004Z" fill="white"/>
<path d="M334.576 535.108C342.567 540.584 361.68 550.2 371.53 555.878C350.531 563.004 327.157 569.223 307.054 578.003C302.027 580.197 289.256 588.853 284.209 592.161C277.078 596.478 270.085 601.025 263.243 605.791C261.575 595.942 260.242 586.038 259.244 576.096C268.761 571.326 280.474 564.123 290.03 558.809C304.793 550.748 319.643 542.847 334.576 535.108Z" fill="white"/>
<path d="M370.769 178.628C382.212 179.318 399.6 181.959 411.604 183.298C396.108 189.756 373.18 197.023 356.719 202.766L335.759 211.177L322.916 200.171C338.068 193.835 355.484 185.433 370.769 178.628Z" fill="white"/>
<path d="M484.146 208.199C495.295 212.146 511.793 221.207 523.306 226.545C531.273 239.511 539.15 252.532 546.938 265.61C509.006 253.11 504.77 239.947 484.146 208.199Z" fill="white"/>
<path d="M530.355 74.3831C532.706 78.6429 536.402 89.8482 533.345 94.0446C526.181 87.1903 525.315 82.8728 530.355 74.3831Z" fill="white"/>
</svg>
